<svg id="Layer_1" data-name="Layer 1" xmlns="http://www.w3.org/2000/svg" viewBox="0 0 260.87 99.27"><defs><style>.cls-1{fill:#333f48;}.cls-2{fill:#f07e19;}.cls-3{fill:#fff;}</style></defs><path class="cls-1" d="M139.07,42.57v3.24h4.27v.76h-4.27v3.5h-.87V41.82h5.66v.75Z"/><path class="cls-1" d="M146.19,49.72a2.92,2.92,0,0,1-1.13-1.13,3.43,3.43,0,0,1,0-3.25,2.9,2.9,0,0,1,1.13-1.12,3.46,3.46,0,0,1,3.23,0,2.87,2.87,0,0,1,1.12,1.12,3.43,3.43,0,0,1,0,3.25,2.9,2.9,0,0,1-1.12,1.13,3.46,3.46,0,0,1-3.23,0Zm2.8-.64a2.1,2.1,0,0,0,.82-.85A2.72,2.72,0,0,0,150.1,47a2.66,2.66,0,0,0-.29-1.26,2.13,2.13,0,0,0-.82-.86,2.49,2.49,0,0,0-2.37,0,2.22,2.22,0,0,0-.83.86A2.66,2.66,0,0,0,145.5,47a2.72,2.72,0,0,0,.29,1.26,2.19,2.19,0,0,0,.83.85,2.49,2.49,0,0,0,2.37,0Z"/><path class="cls-1" d="M154.34,44.14a3,3,0,0,1,1.44-.32v.81h-.2a2,2,0,0,0-1.53.6,2.41,2.41,0,0,0-.55,1.69v3.16h-.84v-6.2h.8v1.21A2,2,0,0,1,154.34,44.14Z"/><path class="cls-1" d="M164.5,44.43a2.34,2.34,0,0,1,.65,1.79v3.85h-.8v-1a2,2,0,0,1-.83.75,2.94,2.94,0,0,1-1.31.27,2.55,2.55,0,0,1-1.65-.49,1.63,1.63,0,0,1-.61-1.31,1.59,1.59,0,0,1,.57-1.27,2.81,2.81,0,0,1,1.82-.48h2v-.38a1.58,1.58,0,0,0-.45-1.22,1.84,1.84,0,0,0-1.31-.42,3.36,3.36,0,0,0-1.13.2,2.66,2.66,0,0,0-.93.53l-.37-.62a3.17,3.17,0,0,1,1.13-.62,4.26,4.26,0,0,1,1.39-.22A2.59,2.59,0,0,1,164.5,44.43Zm-.94,4.71a2,2,0,0,0,.75-.94v-1h-1.94q-1.59,0-1.59,1.11a1,1,0,0,0,.41.85,1.85,1.85,0,0,0,1.15.31A2.2,2.2,0,0,0,163.56,49.14Z"/><path class="cls-1" d="M175.28,44.22a2.82,2.82,0,0,1,1.11,1.11,3.54,3.54,0,0,1,0,3.27,2.85,2.85,0,0,1-1.11,1.12,3.12,3.12,0,0,1-1.58.4,3,3,0,0,1-1.4-.33,2.51,2.51,0,0,1-1-.95v1.23h-.8V41.32h.83v3.73a2.67,2.67,0,0,1,1-.92,2.9,2.9,0,0,1,1.36-.31A3.12,3.12,0,0,1,175.28,44.22Zm-.46,4.86a2.12,2.12,0,0,0,.83-.85A2.61,2.61,0,0,0,176,47a2.55,2.55,0,0,0-.3-1.26,2.15,2.15,0,0,0-.83-.86,2.35,2.35,0,0,0-1.18-.3,2.33,2.33,0,0,0-1.18.3,2.15,2.15,0,0,0-.83.86,2.55,2.55,0,0,0-.3,1.26,2.61,2.61,0,0,0,.3,1.26,2.12,2.12,0,0,0,.83.85,2.33,2.33,0,0,0,1.18.3A2.35,2.35,0,0,0,174.82,49.08Z"/><path class="cls-1" d="M180.18,44.14a3,3,0,0,1,1.44-.32v.81h-.2a2,2,0,0,0-1.53.6,2.41,2.41,0,0,0-.56,1.69v3.16h-.83v-6.2h.8v1.21A2,2,0,0,1,180.18,44.14Z"/><path class="cls-1" d="M183.12,42.34a.58.58,0,0,1-.18-.43.55.55,0,0,1,.18-.41.57.57,0,0,1,.43-.18.64.64,0,0,1,.44.17.54.54,0,0,1,.17.41.6.6,0,0,1-.17.44.64.64,0,0,1-.44.17A.6.6,0,0,1,183.12,42.34Zm0,1.53H184v6.2h-.83Z"/><path class="cls-1" d="M192,43.87v5.44a2.72,2.72,0,0,1-3.09,3.1,5.52,5.52,0,0,1-1.64-.25,3.49,3.49,0,0,1-1.25-.7l.42-.64a3.14,3.14,0,0,0,1.09.62,4.07,4.07,0,0,0,1.35.23,2.39,2.39,0,0,0,1.73-.55,2.3,2.3,0,0,0,.56-1.7v-.79a2.51,2.51,0,0,1-1,.89,3.09,3.09,0,0,1-1.4.31,3.32,3.32,0,0,1-1.58-.38,2.84,2.84,0,0,1-1.12-1.08,3,3,0,0,1-.41-1.56,3,3,0,0,1,.41-1.55,2.76,2.76,0,0,1,1.11-1.06,3.34,3.34,0,0,1,1.59-.38,3.2,3.2,0,0,1,1.43.32,2.58,2.58,0,0,1,1,.92V43.87Zm-1.95,4.93a2,2,0,0,0,.84-.81,2.3,2.3,0,0,0,.3-1.18,2.26,2.26,0,0,0-.3-1.17,2.09,2.09,0,0,0-.84-.8,2.52,2.52,0,0,0-1.21-.29,2.63,2.63,0,0,0-1.21.28,2,2,0,0,0-.84.81,2.26,2.26,0,0,0-.3,1.17,2.3,2.3,0,0,0,.3,1.18,2,2,0,0,0,.84.81,2.52,2.52,0,0,0,1.21.29A2.57,2.57,0,0,0,190.08,48.8Z"/><path class="cls-1" d="M199.39,44.5a2.64,2.64,0,0,1,.69,2v3.6h-.84V46.55a2.07,2.07,0,0,0-.48-1.47,1.8,1.8,0,0,0-1.38-.51,2.1,2.1,0,0,0-1.58.6,2.24,2.24,0,0,0-.59,1.64v3.26h-.83V41.32h.83V45a2.35,2.35,0,0,1,.95-.84,3.18,3.18,0,0,1,1.38-.29A2.54,2.54,0,0,1,199.39,44.5Z"/><path class="cls-1" d="M205.62,49.69A1.55,1.55,0,0,1,205,50a2.27,2.27,0,0,1-.73.11,1.78,1.78,0,0,1-1.34-.47,1.76,1.76,0,0,1-.47-1.33V44.57h-1.11v-.7h1.11V42.51h.83v1.36h1.89v.7h-1.89v3.7a1.18,1.18,0,0,0,.28.85,1,1,0,0,0,.79.28,1.38,1.38,0,0,0,.5-.08,1.06,1.06,0,0,0,.42-.23Z"/><path class="cls-1" d="M212.31,47.23h-5.18a2.19,2.19,0,0,0,.74,1.56,2.49,2.49,0,0,0,1.69.59,2.78,2.78,0,0,0,1.06-.2,2.22,2.22,0,0,0,.84-.61l.47.54a2.59,2.59,0,0,1-1,.75,3.33,3.33,0,0,1-1.36.26,3.43,3.43,0,0,1-1.69-.4,3,3,0,0,1-1.15-1.13,3.25,3.25,0,0,1-.41-1.62,3.36,3.36,0,0,1,.39-1.63,2.93,2.93,0,0,1,1.09-1.12,3,3,0,0,1,1.55-.4,3,3,0,0,1,1.54.4,2.85,2.85,0,0,1,1.07,1.11,3.37,3.37,0,0,1,.39,1.64Zm-4.5-2.12a2.24,2.24,0,0,0-.68,1.49h4.39a2.25,2.25,0,0,0-.69-1.49,2.29,2.29,0,0,0-3,0Z"/><path class="cls-1" d="M215.71,44.14a3,3,0,0,1,1.44-.32v.81H217a2,2,0,0,0-1.53.6,2.41,2.41,0,0,0-.55,1.69v3.16H214v-6.2h.8v1.21A2,2,0,0,1,215.71,44.14Z"/><path class="cls-1" d="M223.07,42.27a1.23,1.23,0,0,0-.27.87v.73h1.91v.7h-1.89v5.5H222v-5.5h-1.11v-.7H222V43.1a1.85,1.85,0,0,1,.49-1.34,1.88,1.88,0,0,1,1.39-.5,2.6,2.6,0,0,1,.68.1,1.69,1.69,0,0,1,.55.29l-.28.63a1.35,1.35,0,0,0-.92-.31A1.07,1.07,0,0,0,223.07,42.27Z"/><path class="cls-1" d="M231.42,43.87v6.2h-.8V48.93a2.27,2.27,0,0,1-.91.88,2.68,2.68,0,0,1-1.32.31,2.39,2.39,0,0,1-2.61-2.66V43.87h.83v3.51a2,2,0,0,0,.49,1.48,1.8,1.8,0,0,0,1.37.51,2.06,2.06,0,0,0,1.55-.59,2.3,2.3,0,0,0,.56-1.66V43.87Z"/><path class="cls-1" d="M237,49.69a1.55,1.55,0,0,1-.58.32,2.27,2.27,0,0,1-.73.11,1.78,1.78,0,0,1-1.34-.47,1.76,1.76,0,0,1-.47-1.33V44.57H232.8v-.7h1.11V42.51h.83v1.36h1.89v.7h-1.89v3.7a1.18,1.18,0,0,0,.28.85,1,1,0,0,0,.79.28,1.38,1.38,0,0,0,.5-.08,1.06,1.06,0,0,0,.42-.23Z"/><path class="cls-1" d="M244.13,43.87v6.2h-.8V48.93a2.27,2.27,0,0,1-.91.88,2.68,2.68,0,0,1-1.32.31,2.39,2.39,0,0,1-2.61-2.66V43.87h.84v3.51a2.06,2.06,0,0,0,.48,1.48,1.8,1.8,0,0,0,1.38.51,2,2,0,0,0,1.54-.59,2.31,2.31,0,0,0,.57-1.66V43.87Z"/><path class="cls-1" d="M248.16,44.14a3,3,0,0,1,1.44-.32v.81h-.2a2,2,0,0,0-1.53.6,2.41,2.41,0,0,0-.56,1.69v3.16h-.83v-6.2h.8v1.21A2,2,0,0,1,248.16,44.14Z"/><path class="cls-1" d="M256.45,47.23h-5.19a2.23,2.23,0,0,0,.74,1.56,2.51,2.51,0,0,0,1.7.59,2.82,2.82,0,0,0,1.06-.2,2.39,2.39,0,0,0,.84-.61l.47.54a2.67,2.67,0,0,1-1,.75,3.4,3.4,0,0,1-1.36.26,3.43,3.43,0,0,1-1.69-.4,2.84,2.84,0,0,1-1.15-1.13,3.16,3.16,0,0,1-.42-1.62,3.36,3.36,0,0,1,.4-1.63,2.84,2.84,0,0,1,1.08-1.12,3.2,3.2,0,0,1,3.1,0,2.93,2.93,0,0,1,1.07,1.11,3.37,3.37,0,0,1,.39,1.64ZM252,45.11a2.25,2.25,0,0,0-.69,1.49h4.4a2.29,2.29,0,0,0-.69-1.49,2.29,2.29,0,0,0-3,0Z"/><path class="cls-1" d="M258.71,49a.67.67,0,0,1,.17.46,1.13,1.13,0,0,1,0,.3c0,.11-.07.24-.12.38l-.5,1.62h-.56l.4-1.7a.63.63,0,0,1-.31-.22.62.62,0,0,1-.12-.38.63.63,0,0,1,.18-.46.65.65,0,0,1,.9,0Z"/><path class="cls-2" d="M139.45,57.58V58h1.73v1.18H139.5V64.2H138V59.14h-1V58h1v-.4a2.12,2.12,0,0,1,.59-1.6,2.71,2.71,0,0,1,3-.24l-.41,1.11a1.47,1.47,0,0,0-.82-.26C139.76,56.57,139.45,56.91,139.45,57.58Z"/><path class="cls-2" d="M146.76,57.84v1.4l-.35,0a1.75,1.75,0,0,0-1.34.5,2,2,0,0,0-.48,1.44V64.2h-1.47V57.91h1.4v.92A2.45,2.45,0,0,1,146.76,57.84Z"/><path class="cls-2" d="M153.84,61.53H148.9a1.71,1.71,0,0,0,.68,1.1,2.22,2.22,0,0,0,1.36.41,2.29,2.29,0,0,0,1.71-.69l.79.91a2.81,2.81,0,0,1-1.08.77,3.92,3.92,0,0,1-1.46.26,3.79,3.79,0,0,1-1.82-.42,2.83,2.83,0,0,1-1.22-1.15,3.19,3.19,0,0,1-.43-1.66,3.28,3.28,0,0,1,.42-1.66A2.92,2.92,0,0,1,149,58.25a3.41,3.41,0,0,1,1.67-.41,3.3,3.3,0,0,1,1.64.41,2.88,2.88,0,0,1,1.13,1.14,3.48,3.48,0,0,1,.41,1.7C153.86,61.2,153.85,61.34,153.84,61.53Zm-4.36-2.09a1.78,1.78,0,0,0-.59,1.11h3.57a1.82,1.82,0,0,0-.58-1.11,1.76,1.76,0,0,0-1.2-.42A1.79,1.79,0,0,0,149.48,59.44Z"/><path class="cls-2" d="M161.17,61.53h-4.94a1.67,1.67,0,0,0,.68,1.1,2.2,2.2,0,0,0,1.36.41,2.25,2.25,0,0,0,1.7-.69l.8.91a2.81,2.81,0,0,1-1.08.77,4,4,0,0,1-1.46.26,3.79,3.79,0,0,1-1.82-.42,2.83,2.83,0,0,1-1.22-1.15,3.19,3.19,0,0,1-.43-1.66,3.27,3.27,0,0,1,.41-1.66,3.05,3.05,0,0,1,1.16-1.15,3.48,3.48,0,0,1,1.68-.41,3.3,3.3,0,0,1,1.64.41,2.88,2.88,0,0,1,1.13,1.14,3.48,3.48,0,0,1,.41,1.7C161.19,61.2,161.18,61.34,161.17,61.53Zm-4.36-2.09a1.78,1.78,0,0,0-.59,1.11h3.57a1.82,1.82,0,0,0-.58-1.11A1.76,1.76,0,0,0,158,59,1.79,1.79,0,0,0,156.81,59.44Z"/><path class="cls-2" d="M167.48,57.58V58h1.73v1.18h-1.68V64.2h-1.48V59.14h-1V58h1v-.4a2.16,2.16,0,0,1,.59-1.6,2.27,2.27,0,0,1,1.66-.58,2.29,2.29,0,0,1,1.34.34l-.42,1.11a1.42,1.42,0,0,0-.81-.26C167.79,56.57,167.48,56.91,167.48,57.58Z"/><path class="cls-2" d="M174.78,57.84v1.4l-.34,0a1.75,1.75,0,0,0-1.34.5,2,2,0,0,0-.48,1.44V64.2h-1.48V57.91h1.4v.92A2.46,2.46,0,0,1,174.78,57.84Z"/><path class="cls-2" d="M177.08,63.87a2.87,2.87,0,0,1-1.19-1.15,3.42,3.42,0,0,1,0-3.32,3,3,0,0,1,1.19-1.15,3.83,3.83,0,0,1,3.45,0,3.09,3.09,0,0,1,1.2,1.15,3.42,3.42,0,0,1,0,3.32,3,3,0,0,1-1.2,1.15,3.75,3.75,0,0,1-3.45,0Zm3.06-1.39a1.91,1.91,0,0,0,.54-1.42,1.94,1.94,0,0,0-.54-1.43,1.93,1.93,0,0,0-2.68,0,2,2,0,0,0-.52,1.43,2,2,0,0,0,.52,1.42,1.91,1.91,0,0,0,2.68,0Z"/><path class="cls-2" d="M193.4,58.53a2.81,2.81,0,0,1,.7,2.07v3.6h-1.48V60.79a1.88,1.88,0,0,0-.36-1.25,1.33,1.33,0,0,0-1-.41,1.54,1.54,0,0,0-1.19.48,2,2,0,0,0-.45,1.4V64.2H188.1V60.79a1.83,1.83,0,0,0-.37-1.25,1.3,1.3,0,0,0-1-.41,1.53,1.53,0,0,0-1.19.48,2,2,0,0,0-.44,1.4V64.2h-1.48V57.91H185v.8a2.3,2.3,0,0,1,.88-.65,3.18,3.18,0,0,1,1.18-.22,2.77,2.77,0,0,1,1.25.27,1.93,1.93,0,0,1,.87.78,2.56,2.56,0,0,1,1-.77,3.18,3.18,0,0,1,1.36-.28A2.55,2.55,0,0,1,193.4,58.53Z"/><path class="cls-2" d="M203.76,58.51a2.57,2.57,0,0,1,.74,2V64.2h-1.39v-.76a1.79,1.79,0,0,1-.77.63,3.15,3.15,0,0,1-1.21.22,2.86,2.86,0,0,1-1.24-.25,2,2,0,0,1-.82-.67,1.7,1.7,0,0,1-.28-1,1.66,1.66,0,0,1,.62-1.36,3.18,3.18,0,0,1,2-.51H203v-.1a1.3,1.3,0,0,0-.4-1,1.67,1.67,0,0,0-1.17-.35,3.37,3.37,0,0,0-1,.16,2.49,2.49,0,0,0-.87.46L199,58.62a3.57,3.57,0,0,1,1.19-.58,5.51,5.51,0,0,1,1.48-.2A3,3,0,0,1,203.76,58.51ZM202.42,63a1.39,1.39,0,0,0,.61-.72v-.73h-1.52c-.85,0-1.28.27-1.28.83a.76.76,0,0,0,.32.64,1.52,1.52,0,0,0,.89.23A1.91,1.91,0,0,0,202.42,63Z"/><path class="cls-2" d="M211.52,58.24a2.92,2.92,0,0,1,1.13,1.13,3.69,3.69,0,0,1,0,3.38,2.79,2.79,0,0,1-1.13,1.13,3.36,3.36,0,0,1-1.65.41,3,3,0,0,1-1.18-.23,2.22,2.22,0,0,1-.9-.67v.81h-1.41V55.46h1.48v3.22a2.34,2.34,0,0,1,.89-.63,2.9,2.9,0,0,1,1.12-.21A3.36,3.36,0,0,1,211.52,58.24ZM211,62.48a2,2,0,0,0,.53-1.42,2,2,0,0,0-.53-1.43,1.77,1.77,0,0,0-1.33-.54,1.93,1.93,0,0,0-1,.24,1.78,1.78,0,0,0-.67.69,2.19,2.19,0,0,0-.25,1,2.12,2.12,0,0,0,.25,1,1.78,1.78,0,0,0,.67.69,1.93,1.93,0,0,0,1,.25A1.78,1.78,0,0,0,211,62.48Z"/><path class="cls-2" d="M220.56,57.91V64.2h-1.41v-.8a2.43,2.43,0,0,1-.88.66,2.87,2.87,0,0,1-1.14.23,2.48,2.48,0,0,1-2.71-2.78v-3.6h1.47V61.3a1.85,1.85,0,0,0,.38,1.27,1.41,1.41,0,0,0,1.09.42,1.64,1.64,0,0,0,1.26-.49,2,2,0,0,0,.46-1.41V57.91Z"/><path class="cls-2" d="M222.94,64.09a4,4,0,0,1-1.17-.51l.57-1.12a3.42,3.42,0,0,0,1,.45,4,4,0,0,0,1.17.17q1.32,0,1.32-.69a.48.48,0,0,0-.34-.46,5.45,5.45,0,0,0-1.08-.25,8.91,8.91,0,0,1-1.26-.27,2,2,0,0,1-.85-.53,1.52,1.52,0,0,1-.36-1.07,1.66,1.66,0,0,1,.75-1.43,3.38,3.38,0,0,1,2-.54A5.68,5.68,0,0,1,226,58a3.69,3.69,0,0,1,1.06.39l-.56,1.12a3.55,3.55,0,0,0-1.8-.47,2,2,0,0,0-1,.2.57.57,0,0,0-.33.51.52.52,0,0,0,.36.5,5.82,5.82,0,0,0,1.11.28,7.09,7.09,0,0,1,1.24.27,1.93,1.93,0,0,1,.83.51,1.47,1.47,0,0,1,.35,1,1.66,1.66,0,0,1-.77,1.42,3.65,3.65,0,0,1-2.09.53A5.7,5.7,0,0,1,222.94,64.09Z"/><path class="cls-2" d="M234.45,61.53h-4.94a1.71,1.71,0,0,0,.68,1.1,2.22,2.22,0,0,0,1.36.41,2.29,2.29,0,0,0,1.71-.69l.79.91A2.7,2.7,0,0,1,233,64a4,4,0,0,1-1.46.26,3.8,3.8,0,0,1-1.83-.42,2.88,2.88,0,0,1-1.22-1.15,3.19,3.19,0,0,1-.43-1.66,3.28,3.28,0,0,1,.42-1.66,3,3,0,0,1,1.16-1.15,3.41,3.41,0,0,1,1.67-.41,3.3,3.3,0,0,1,1.64.41,2.91,2.91,0,0,1,1.14,1.14,3.47,3.47,0,0,1,.4,1.7C234.47,61.2,234.46,61.34,234.45,61.53Zm-4.35-2.09a1.75,1.75,0,0,0-.6,1.11h3.57A1.72,1.72,0,0,0,231.29,59,1.75,1.75,0,0,0,230.1,59.44Z"/><path class="cls-2" d="M235.67,64a1,1,0,0,1,.69-1.68.93.93,0,0,1,1,1,.94.94,0,0,1-.28.7,1,1,0,0,1-1.37,0Z"/><rect class="cls-1" x="122.48" y="37.09" width="0.5" height="33.67"/><path class="cls-2" d="M101.88,30.87A48.13,48.13,0,0,0,74,3a47.35,47.35,0,0,0-49,10,46.15,46.15,0,0,0-11.92,9.46,42.47,42.47,0,0,0-11,25.13A41.91,41.91,0,0,0,8.66,73.13,47.87,47.87,0,0,0,36.45,93.19a52.11,52.11,0,0,0,34.86,5c18.22-3.75,34.46-17.62,37.77-36.42a40.58,40.58,0,0,0,.62-7A41.38,41.38,0,0,0,101.88,30.87Zm-31,60-1.19.33.12,0a41.53,41.53,0,0,0,4.58-2,1.49,1.49,0,0,0,.25-.13,48.91,48.91,0,0,0,8.21-5.59l.82-.72a42.74,42.74,0,0,0,14.17-25,42.17,42.17,0,0,0,.55-6.74c-.06-14.33-7.65-27.15-18.93-35.25A46.92,46.92,0,0,1,102,34.58a43.33,43.33,0,0,1,1,4.94A46.37,46.37,0,0,1,73.91,89.76c-1,.4-2,.75-3.08,1.08m3.19-77c1.47.4,2.91.87,4.33,1.41h0C88.17,21.83,95.5,31.84,97.5,43.9a41.86,41.86,0,0,1,.55,6.7A40.87,40.87,0,0,1,93.3,69.52,42.21,42.21,0,0,0,74,13.86m-7.5-12.3A45.6,45.6,0,0,1,99.66,28,47.54,47.54,0,0,0,80.22,14.26h0a58,58,0,0,0-7.94-2.82q-2.11-1-4.34-1.86a52.16,52.16,0,0,0-37.72.81A46.49,46.49,0,0,1,66.52,1.56ZM28.59,11.67A52.14,52.14,0,0,1,58.64,7.52a50.06,50.06,0,0,1,11.63,3.39,54.49,54.49,0,0,0-22.65-.83l-.37.07-.09,0a42.18,42.18,0,0,0-33,31.44h0s0,0,0,0A49.2,49.2,0,0,0,13,56.43a46.65,46.65,0,0,1,5.55-33A45.76,45.76,0,0,1,28.59,11.67ZM13,56.44a.43.43,0,0,0,0,.05s0,0,0-.05Zm1,23.28A42,42,0,0,1,2.41,54.32a41.5,41.5,0,0,1,6.7-26.06A45.55,45.55,0,0,1,23.5,14.39c-.63.66-1.24,1.33-1.84,2a46.94,46.94,0,0,0-10.47,36.9v0S11.54,60,15.8,70.35l.35.84A40.74,40.74,0,0,0,20,78.47a45.56,45.56,0,0,0,15.13,14A48.13,48.13,0,0,1,14,79.72Zm11.31,2.35a44.23,44.23,0,0,1-4-5.28A42.08,42.08,0,0,0,55.15,93.73c.54,0,1.06,0,1.59,0,1.15,0,2.29,0,3.45,0A52.5,52.5,0,0,1,42,94,46.7,46.7,0,0,1,25.34,82.07ZM77.24,95.8a50.89,50.89,0,0,1-33.77-1.17,51.9,51.9,0,0,0,9,.44s.78,0,2.11-.13l.36,0a73.46,73.46,0,0,0,18.32-3.65h0a47.07,47.07,0,0,0,31.1-37,49.58,49.58,0,0,0,.54-7.1,45.58,45.58,0,0,0-.89-8.76,39.67,39.67,0,0,1,3.27,10.19,40.23,40.23,0,0,1,.6,6.94C107.8,74.13,94.76,90.19,77.24,95.8Z"/><path class="cls-3" d="M42.54,45a4.26,4.26,0,0,1-.72,2.41,4.75,4.75,0,0,1-2.18,1.73,9,9,0,0,1-3.57.63,11,11,0,0,1-3.66-.62,6.64,6.64,0,0,1-2.73-1.63l-.08-.08.84-1.65.15.14A6.45,6.45,0,0,0,33,47.39a8.58,8.58,0,0,0,3.09.56,5.64,5.64,0,0,0,3.32-.8,2.4,2.4,0,0,0,1.08-2,2,2,0,0,0-.57-1.51,4.09,4.09,0,0,0-1.46-.9C37.86,42.48,37,42.24,36,42a25.72,25.72,0,0,1-3.07-.93,5.17,5.17,0,0,1-2-1.41,3.81,3.81,0,0,1-.84-2.59,4.38,4.38,0,0,1,.7-2.42,4.76,4.76,0,0,1,2.14-1.73,8.67,8.67,0,0,1,3.55-.64,10.43,10.43,0,0,1,2.88.4,8.5,8.5,0,0,1,2.45,1.12l.1.07-.72,1.71-.15-.1a8.35,8.35,0,0,0-4.56-1.38,5.34,5.34,0,0,0-3.26.83A2.5,2.5,0,0,0,32.11,37a2.08,2.08,0,0,0,.57,1.53,4,4,0,0,0,1.5.91c.61.21,1.44.45,2.48.71a23.41,23.41,0,0,1,3,.91,5,5,0,0,1,2,1.39A3.78,3.78,0,0,1,42.54,45Z"/><path class="cls-3" d="M55.66,36.61V38.7a5.46,5.46,0,0,0-1.82-1.53A6.19,6.19,0,0,0,51,36.51a6.72,6.72,0,0,0-3.31.83,5.92,5.92,0,0,0-2.33,2.35,7.44,7.44,0,0,0,0,6.87,6,6,0,0,0,2.33,2.35,6.62,6.62,0,0,0,3.31.84,6.19,6.19,0,0,0,2.94-.69,5.36,5.36,0,0,0,1.82-1.6v2.17h2v-13ZM51.12,47.93a4.65,4.65,0,0,1-2.36-.6,4.15,4.15,0,0,1-1.63-1.69,5.57,5.57,0,0,1,0-5,4.12,4.12,0,0,1,1.63-1.7,4.65,4.65,0,0,1,2.36-.6,4.57,4.57,0,0,1,2.33.6,4.24,4.24,0,0,1,1.64,1.69,5.59,5.59,0,0,1,0,5,4.24,4.24,0,0,1-1.64,1.69A4.57,4.57,0,0,1,51.12,47.93Z"/><path class="cls-3" d="M64.14,35.26v1.35h3.92v1.75H64.19V49.63h-2V35.19a3.91,3.91,0,0,1,1-2.87,4,4,0,0,1,2.94-1.06,5,5,0,0,1,1.45.22,3.28,3.28,0,0,1,1.19.62l.09.07-.71,1.57L68,33.61a2.69,2.69,0,0,0-1.79-.6,2.08,2.08,0,0,0-1.58.56A2.39,2.39,0,0,0,64.14,35.26Z"/><path class="cls-3" d="M79.23,46.31a4.36,4.36,0,0,1-1.64,1.21,5.55,5.55,0,0,1-2.14.41,5.06,5.06,0,0,1-3-.86,4.31,4.31,0,0,1-1.64-2.19l10.41-2v-.13a6.72,6.72,0,0,0-.87-3.22,6.06,6.06,0,0,0-2.24-2.2,6.23,6.23,0,0,0-3.13-.8,6.56,6.56,0,0,0-3.32.85,6,6,0,0,0-2.29,2.35,7,7,0,0,0-.83,3.41,6.71,6.71,0,0,0,.87,3.41,6.13,6.13,0,0,0,2.42,2.37,7.82,7.82,0,0,0,6.4.31,5.63,5.63,0,0,0,2.16-1.59l.08-.1-1.16-1.34Zm-4.21-8a4.13,4.13,0,0,1,2.8,1,4.21,4.21,0,0,1,1.4,2.39l-8.66,1.68c0-.09,0-.21,0-.35a5.16,5.16,0,0,1,.57-2.46,4.3,4.3,0,0,1,1.59-1.66A4.56,4.56,0,0,1,75,38.29Z"/><path class="cls-3" d="M36,65.9a4.26,4.26,0,0,1-.72,2.41A4.75,4.75,0,0,1,33.11,70a9,9,0,0,1-3.57.63,11.2,11.2,0,0,1-3.66-.61,6.87,6.87,0,0,1-2.74-1.64l-.07-.08.84-1.65.15.14a6.6,6.6,0,0,0,2.39,1.46,8.79,8.79,0,0,0,3.09.55,5.64,5.64,0,0,0,3.32-.8A2.4,2.4,0,0,0,33.94,66a2,2,0,0,0-.57-1.51,4.09,4.09,0,0,0-1.46-.9,24.39,24.39,0,0,0-2.48-.7,27.85,27.85,0,0,1-3.06-.94,5.17,5.17,0,0,1-2-1.41,3.81,3.81,0,0,1-.85-2.59,4.33,4.33,0,0,1,.71-2.41,4.72,4.72,0,0,1,2.14-1.74,8.64,8.64,0,0,1,3.55-.64,10.43,10.43,0,0,1,2.88.4,8.5,8.5,0,0,1,2.45,1.12l.1.07-.72,1.71-.15-.1a8.29,8.29,0,0,0-2.24-1A8.69,8.69,0,0,0,29.91,55a5.34,5.34,0,0,0-3.26.83,2.5,2.5,0,0,0-1.07,2.09,2.08,2.08,0,0,0,.57,1.53,4,4,0,0,0,1.5.91c.61.21,1.44.45,2.48.71a23.41,23.41,0,0,1,3,.91,5.16,5.16,0,0,1,2,1.39A3.78,3.78,0,0,1,36,65.9Z"/><path class="cls-3" d="M45.84,69.63l-.09.08a3.49,3.49,0,0,1-1.24.7,5.08,5.08,0,0,1-1.52.23,3.51,3.51,0,0,1-3.87-3.85V54.72h2V57.5H45v1.75H41.13V66.7a2.3,2.3,0,0,0,.52,1.62,2,2,0,0,0,1.51.55A2.6,2.6,0,0,0,45,68.25l.15-.13Z"/><path class="cls-3" d="M59.57,63.62a6.73,6.73,0,0,0-.88-3.22,6,6,0,0,0-2.24-2.2,6.23,6.23,0,0,0-3.13-.8,6.59,6.59,0,0,0-3.32.85,6,6,0,0,0-2.29,2.35A7,7,0,0,0,46.88,64a6.71,6.71,0,0,0,.87,3.41,6.09,6.09,0,0,0,2.43,2.37,7.79,7.79,0,0,0,6.39.31,5.63,5.63,0,0,0,2.16-1.59l.09-.1-1.17-1.34-.11.13a4.47,4.47,0,0,1-1.65,1.21,5.54,5.54,0,0,1-2.13.41A5,5,0,0,1,50.81,68a4.33,4.33,0,0,1-1.65-2.19l10.41-2Zm-10.71.62c0-.09,0-.21,0-.35a5.05,5.05,0,0,1,.58-2.46A4.18,4.18,0,0,1,51,59.78a4.5,4.5,0,0,1,2.31-.6,4.16,4.16,0,0,1,2.81,1,4.26,4.26,0,0,1,1.39,2.39Z"/><path class="cls-3" d="M75.13,60.58a6,6,0,0,0-2.34-2.35,6.69,6.69,0,0,0-3.31-.83,6.23,6.23,0,0,0-2.94.7,5.38,5.38,0,0,0-1.82,1.57V57.5H62.77V75.22h2V68.45A5.42,5.42,0,0,0,66.62,70a6.24,6.24,0,0,0,2.86.65,6.61,6.61,0,0,0,3.33-.83,5.93,5.93,0,0,0,2.32-2.34,7.48,7.48,0,0,0,0-6.89Zm-5.77,8.24a4.65,4.65,0,0,1-2.36-.6,4.15,4.15,0,0,1-1.63-1.69,5.19,5.19,0,0,1-.6-2.52,5.08,5.08,0,0,1,.6-2.5A4.24,4.24,0,0,1,67,59.81a4.83,4.83,0,0,1,4.7,0,4.35,4.35,0,0,1,1.65,1.7A5.08,5.08,0,0,1,74,64a5.19,5.19,0,0,1-.6,2.52,4.13,4.13,0,0,1-1.65,1.69A4.63,4.63,0,0,1,69.36,68.82Z"/><path class="cls-3" d="M88.13,66.87a3.25,3.25,0,0,1-1.45,2.77,6.78,6.78,0,0,1-3.94,1,10,10,0,0,1-3-.45A6.5,6.5,0,0,1,77.46,69L77.37,69l.92-1.62.14.11a6.21,6.21,0,0,0,2,1,7.79,7.79,0,0,0,2.47.39,4.64,4.64,0,0,0,2.49-.52,1.56,1.56,0,0,0,.77-1.41,1.24,1.24,0,0,0-.41-1,2.92,2.92,0,0,0-1.11-.58A18.71,18.71,0,0,0,82.76,65a23,23,0,0,1-2.51-.6,3.82,3.82,0,0,1-1.68-1.07,3,3,0,0,1-.7-2.11,3.3,3.3,0,0,1,1.39-2.73,6.16,6.16,0,0,1,3.79-1.05,9.76,9.76,0,0,1,2.5.33,7.19,7.19,0,0,1,2.08.88l.12.08-.9,1.65-.14-.1a6.34,6.34,0,0,0-3.66-1.06,4.32,4.32,0,0,0-2.4.55,1.63,1.63,0,0,0-.76,1.4,1.32,1.32,0,0,0,.42,1,2.66,2.66,0,0,0,1.11.61,17.45,17.45,0,0,0,1.92.42,20,20,0,0,1,2.46.59,3.67,3.67,0,0,1,1.64,1A2.88,2.88,0,0,1,88.13,66.87Z"/></svg>